<svg id="Layer_1" data-name="Layer 1" xmlns="http://www.w3.org/2000/svg" xmlns:xlink="http://www.w3.org/1999/xlink" width="37" height="37" viewBox="0 0 500 500"><defs><style>.cls-1{fill:none;}.cls-2{fill:#86533e;}.cls-3{fill:#4f3319;}.cls-4{clip-path:url(#clip-path);}.cls-5{fill:#a66951;}.cls-6{fill:#784635;}.cls-7{fill:#be9981;}.cls-8{fill:#8d5d31;}.cls-9{clip-path:url(#clip-path-2);}.cls-10{fill:#fedcc6;}.cls-11{fill:#684133;}.cls-12{fill:#5e382a;}.cls-13{fill:#b37760;}</style><clipPath id="clip-path"><path class="cls-1" d="M55.54,271.33S24,247,33,207.41,75.35,159.7,75.35,159.7s-2.7-36,27-43.22c0,0,26.11-74.72,102.63-42.31,0,0,72-61.22,124.24,3.6,0,0,46.82-16.21,74.73,38.71,0,0,50.41-.9,37.81,56.72,0,0,56.72,39.61,0,103.54S79,327.15,55.54,271.33Z"/></clipPath><clipPath id="clip-path-2"><path class="cls-1" d="M392.09,266.39a32.47,32.47,0,0,1-57,0,32.47,32.47,0,0,1-57,0,32.46,32.46,0,0,1-57,0,32.47,32.47,0,0,1-57,0,32.47,32.47,0,0,1-57,0C82,284.54,67,277.94,51.78,269.56l56,154.82s38.67,32.42,144,32.42c86.43,0,140.4-32.42,140.4-32.42L449.86,265C428.87,276.14,406.66,282.14,392.09,266.39Z"/></clipPath></defs><title>Chocolate chips muffin</title><path class="cls-2" d="M55.54,271.33S24,247,33,207.41,75.35,159.7,75.35,159.7s-2.7-36,27-43.22c0,0,26.11-74.72,102.63-42.31,0,0,72-61.22,124.24,3.6,0,0,46.82-16.21,74.73,38.71,0,0,50.41-.9,37.81,56.72,0,0,56.72,39.61,0,103.54S79,327.15,55.54,271.33Z"/><path class="cls-3" d="M271.7,48c19,0,39.45,7.33,57.53,29.77a53.6,53.6,0,0,1,16-2.23c16.16,0,41.18,6.4,58.74,40.94h.13c2.86,0,49.9.85,37.68,56.72,0,0,56.72,39.61,0,103.54-26.14,29.46-105.29,42.47-185.3,42.47-93.56,0-188.31-17.79-200.93-47.88,0,0-31.51-24.3-22.51-63.92S75.35,159.7,75.35,159.7s-2.7-36,27-43.22c0,0,17.63-50.46,66.38-50.46,10.58,0,22.61,2.37,36.25,8.15,0,0,30.79-26.17,66.71-26.17m0-7.21c-31.33,0-58.46,18.06-67.88,25.14-12.23-4.72-24-7.11-35.08-7.11-45.9,0-66.46,39.4-71.77,51.72-21.92,7.37-28.35,29.36-28.9,44C57.2,159,33.68,172.09,26,205.82c-8.86,39,17.07,64.31,23.69,70,17.59,34.74,118.8,50.58,206.77,50.58,35.39,0,153.72-3.24,190.69-44.9,20.23-22.81,29.18-45.47,26.59-67.36-2.68-22.68-17.08-37.75-24.07-43.84,3.25-18.58.5-33.46-8.21-44.28-10.14-12.59-25.48-15.73-33.05-16.51-19.78-35.74-47.9-41.19-63.2-41.19a66.31,66.31,0,0,0-13.39,1.33c-16.77-19.17-37-28.88-60.13-28.88Z"/><g class="cls-4"><path class="cls-5" d="M468.78,204.71c-17.11,43.22-50.42,26.11-50.42,26.11-27.91,31.51-71.12-8.1-71.12-8.1-17.11,34.21-71.58,10.35-71.58,10.35,2.71-59.42,56.72-54.47,56.72-54.47-32.86-15.3-53.56,5.86-53.56,5.86-32.42,86.42-103.54,45.46-103.54,45.46-41.41,36-81-19.81-81-19.81-20.7,27-65.72-8.1-65.72-8.1C15,235.32,39.34,270.43,39.34,270.43s60.32,9.91,118.84,23.41,36,4.5,53.11,0,67.53,5.4,99.94,6.3,57.62-4.5,70.22-5.4,63-14.4,85.53-29.71S468.78,204.71,468.78,204.71Z"/><path class="cls-5" d="M114.51,167.8s16.66-13.5,36.91-13.05c0,0-18.45-10.81-36,1.35,0,0-16.65-16.21-40.51-9l-4.05,10.36S92.45,148,114.51,167.8Z"/><path class="cls-5" d="M106,100.73s46.36-27.46,80.57,3.15c0,0,37.82-32.86,72.48,9.9,0,0-8.55-37.81-45.47-35.56,0,0-9.9-5.85-4.5-21.16s-58.07-9-59.87-7.2S125.76,62,120.81,65.17,79.4,79.57,106,100.73Z"/><path class="cls-6" d="M466.08,211.91C449,255.13,415.66,238,415.66,238c-27.91,31.51-71.12-8.1-71.12-8.1C327.43,264.13,277,238,277,238c2.71-59.42,54-59.42,54-59.42-33.31-8.1-50.41,13.51-50.41,13.51-32.41,86.43-108,45-108,45-41.41,36-81-19.8-81-19.8-20.7,27-65.72-8.11-65.72-8.11-13.5,33.31,10.81,68.43,10.81,68.43S97,287.54,155.47,301s36,4.51,53.12,0,67.52,5.41,99.94,6.31,57.61-4.51,70.22-5.41,63-14.4,85.53-29.71S466.08,211.91,466.08,211.91Z"/><path class="cls-6" d="M111.81,175s15.76-20.25,36-19.8a39.29,39.29,0,0,0-35.11,8.1s-16.66-16.21-40.51-9L59.74,165.1S89.75,155.2,111.81,175Z"/><path class="cls-6" d="M103.26,107.93s46.36-27.46,80.57,3.15c0,0,38.27-34.66,75.63,3.15,0,0-11.7-31.06-48.62-28.81,0,0-9.9-5.85-4.5-21.15s-58.07-9-59.87-7.21-23.41,12.16-28.36,15.31S76.7,86.77,103.26,107.93Z"/><path class="cls-6" d="M318,92.62c-15.76-30.16-53.12-10.8-53.12-10.8S256.31,89,267.11,103,333.73,122.78,318,92.62Z"/><path class="cls-6" d="M405.31,132.24c-5.4-31.51-52.67-22.06-52.67-22.06s-16.21-3.15-7.2,20.26S410.71,163.75,405.31,132.24Z"/><path class="cls-6" d="M390.9,215.07c10.36,16.2,59.87,17.1,43.67-11.71s-41.66-4.18-41.66-4.18S380.55,198.86,390.9,215.07Z"/><path class="cls-6" d="M198.69,171s-15.31.45-7.65,18.91,56.72,47.71,70.22-2.7S198.69,171,198.69,171Z"/><path class="cls-6" d="M114.51,216.42s-12.15,13.05,9,18,50.87-6.75,34.22-25.21S114.51,216.42,114.51,216.42Z"/></g><path class="cls-7" d="M392.09,266.39a32.47,32.47,0,0,1-57,0,32.47,32.47,0,0,1-57,0,32.46,32.46,0,0,1-57,0,32.47,32.47,0,0,1-57,0,32.47,32.47,0,0,1-57,0C82,284.54,67,277.94,51.78,269.56l56,154.82s38.67,32.42,144,32.42c86.43,0,140.4-32.42,140.4-32.42L449.86,265C428.87,276.14,406.66,282.14,392.09,266.39Z"/><path class="cls-8" d="M449.86,265,392.21,424.38s-54,32.42-140.4,32.42c-105.34,0-144-32.42-144-32.42l-56-154.82C59.84,274,67.85,278,77.34,278c8.36,0,17.87-3.07,29.56-11.57a32.47,32.47,0,0,0,57,0,32.47,32.47,0,0,0,57,0,32.46,32.46,0,0,0,57,0,32.47,32.47,0,0,0,57,0,32.47,32.47,0,0,0,57,0c6.32,6.84,14.09,9.57,22.57,9.57,11,0,23.32-4.65,35.2-10.93M463,250l-16.49,8.72c-12.67,6.69-23.37,10.09-31.83,10.09-7.11,0-12.76-2.38-17.29-7.26l-6.75-7.3-4.83,8.69a25.26,25.26,0,0,1-44.44,0l-6.3-11.33-6.3,11.33a25.26,25.26,0,0,1-44.44,0L278,251.56l-6.29,11.33a25.26,25.26,0,0,1-44.45,0L221,251.56l-6.3,11.33a25.26,25.26,0,0,1-44.44,0l-6.3-11.33-6.29,11.33a25.26,25.26,0,0,1-44.45,0l-4-7.11-6.58,4.78c-9.44,6.86-17.72,10.2-25.33,10.2-7.84,0-14.92-3.55-22.08-7.5L38.49,254,45,272l56,154.83.66,1.82,1.49,1.24c1.66,1.4,41.9,34.1,148.63,34.1,87.42,0,141.83-32.08,144.1-33.44l2.2-1.32.87-2.41,57.65-159.35L463,250Z"/><g class="cls-9"><path class="cls-10" d="M122.16,450.79,69.35,292.34s26.7,6,36.61-11.1l36.91,171.05,12.6,5.41L125.76,293.84s29.71,7.2,39.62-12.6l18.9,183.66,14.41,4.5L179.78,295.64s27,16.21,42.32-12.6l5.4,184.56,15.3,2.7-4.5-175.56s21.61,15.31,37.81-8.1l-5.4,181.86,10.81-.9,13.5-172s22.51,10.81,39.61-9L317.53,459.5l17.1-1.8,18.91-163s18,11.71,33.31-5.4L361.64,453.19l14.41-7.2,29.71-155.75s29.71,13.5,44.11-7.2l4.5-20.71s-14.4-18-17.1-16.2S290.52,236.22,283.32,238s-219.68,7.21-219.68,7.21-48.61,4.5-50.41,8.1S97.86,451.39,97.86,451.39Z"/></g><path class="cls-11" d="M167.78,97.88c.86-9.11-14.41-28.81-38.41-25.81S97,119.48,119.16,127.29,164.78,129.69,167.78,97.88Z"/><path class="cls-3" d="M134.25,71.76c21.17,0,34.33,17.65,33.53,26.12-2.22,23.5-15.57,32.58-31.35,32.58a52.9,52.9,0,0,1-17.27-3.17c-22.2-7.81-13.8-52.22,10.21-55.22a39.12,39.12,0,0,1,4.88-.31m0-5.4a45.2,45.2,0,0,0-5.55.35c-16.7,2.09-26,19-27.6,33.75-1.65,15.34,4.74,27.87,16.27,31.92a57.72,57.72,0,0,0,19.06,3.48c21.09,0,34.48-13.66,36.73-37.48.51-5.48-2.45-12.34-7.93-18.36a42,42,0,0,0-31-13.66Z"/><path class="cls-11" d="M132.37,173.5c0-4.95-16.81,7.2-20.41,22.81s2.4,34.81,26.41,28.21,19.21-21.61,11.4-28.81S132.37,182.5,132.37,173.5Z"/><path class="cls-3" d="M131.28,172.38a1,1,0,0,1,1.09,1.12c0,9,9.6,15,17.4,22.21s12.61,22.21-11.4,28.81a33.91,33.91,0,0,1-9,1.33c-16.5,0-20.52-16.1-17.42-29.54,3.05-13.2,15.54-23.93,19.32-23.93m0-5.4c-7.57,0-21.36,14.17-24.58,28.11-2.49,10.78-.76,21.25,4.62,28,4.24,5.34,10.49,8.16,18.06,8.16a39.75,39.75,0,0,0,10.42-1.53c15.14-4.17,19.91-11.6,21.25-17.1,2-8.35-2.6-16.26-7.61-20.89-1.59-1.46-3.24-2.88-4.88-4.28-5.79-4.94-10.79-9.21-10.79-14a6.36,6.36,0,0,0-6.49-6.52Z"/><path class="cls-11" d="M266.81,79.87c.36,6,2.4,12.6,14.41,19.21s34.81,9,35.41-9.61S306.42,45.66,298,52.26s-7.8,10.2-16.2,12S266.21,69.67,266.81,79.87Z"/><path class="cls-3" d="M300.9,51.19c7.79,0,16.26,21.75,15.73,38.28-.35,10.71-8,14.46-16.8,14.46a40.91,40.91,0,0,1-18.61-4.85c-12-6.61-14.05-13.19-14.41-19.21-.6-10.2,6.6-13.8,15-15.6s7.8-5.41,16.2-12a4.63,4.63,0,0,1,2.88-1.07m0-5.41A10.09,10.09,0,0,0,294.68,48a57.31,57.31,0,0,0-7.15,6.72c-2.4,2.6-3.21,3.47-6.85,4.25-13.44,2.88-19.92,10-19.26,21.21.4,6.81,2.72,15.66,17.19,23.62a46.09,46.09,0,0,0,21.22,5.52c13.5,0,21.8-7.36,22.2-19.68.46-14.33-5.09-32.1-12.37-39.62-2.73-2.82-5.68-4.25-8.76-4.25Z"/><path class="cls-11" d="M353.24,118.28c-2.35-8.71,2.4-15,12-21s18-9.61,16.81-16.81,12.6-4.8,19.21,11.4,10.2,42.62-8.41,48.62S359.24,140.49,353.24,118.28Z"/><path class="cls-3" d="M385.32,76.62c4.27,0,11.63,4.69,15.94,15.25,6.6,16.21,10.2,42.62-8.41,48.62a41.56,41.56,0,0,1-12.69,2.19c-12.6,0-22.36-7.52-26.92-24.4-2.35-8.71,2.4-15,12-21s18-9.61,16.81-16.81c-.42-2.51,1-3.85,3.27-3.85m0-5.4h0a8.36,8.36,0,0,0-8.6,10.14c.39,2.3-3.51,4.82-10,8.68-1.41.84-2.87,1.72-4.37,2.66-7.95,5-18.09,13.17-14.35,27,4.94,18.31,16.35,28.39,32.13,28.39a46.91,46.91,0,0,0,14.35-2.45,23.46,23.46,0,0,0,14.41-12.72c5.85-12.57,2.46-30.49-2.66-43.07-5.21-12.8-14.51-18.62-20.94-18.62Z"/><path class="cls-11" d="M230.8,135.09c10.86-.49,13.2,2.4,15.6,10.8s3,11.41,10.21,19.21,7.2,33-21.61,36.61-41.41-18.61-36.61-34.21S217.6,135.69,230.8,135.09Z"/><path class="cls-3" d="M233,135c9,0,11.18,3.05,13.41,10.85,2.41,8.41,3,11.41,10.21,19.21s7.2,33-21.61,36.61a49.6,49.6,0,0,1-6.06.39c-24.5,0-35-20.14-30.55-34.6,4.8-15.61,19.21-31.81,32.41-32.41.77,0,1.5-.05,2.19-.05m0-5.41c-.76,0-1.58,0-2.44.06-16.4.75-32.14,19.38-37.32,36.22a31,31,0,0,0,5.11,27.36c6.78,9.18,17.65,14.23,30.6,14.23a53.6,53.6,0,0,0,6.73-.43c19.44-2.43,26.26-13.53,28.6-19.93,3.3-9,1.74-19.82-3.69-25.71-6-6.47-6.6-8.64-8.64-15.84l-.34-1.18c-2.67-9.36-6.58-14.78-18.61-14.78Z"/><path class="cls-11" d="M411.46,173.5c-5,1.11-16.81,8.4-18.61,22.21s13.21,24,26.41,21.61,18.61-10.21,13.81-25.21S416.86,172.3,411.46,173.5Z"/><path class="cls-3" d="M413.18,173.33c5.83,0,15.55,5.22,19.89,18.78,4.8,15-.6,22.81-13.81,25.21a22.63,22.63,0,0,1-3.94.35c-12.06,0-24.09-9.52-22.47-22,1.8-13.81,13.6-21.1,18.61-22.21a8.36,8.36,0,0,1,1.72-.17m0-5.41a13.47,13.47,0,0,0-2.89.31c-8,1.78-20.8,11.52-22.79,26.78a22.83,22.83,0,0,0,5.73,18.21,29.71,29.71,0,0,0,22.09,9.85,27.59,27.59,0,0,0,4.91-.44c8.24-1.5,14-4.95,17.23-10.26,3.36-5.6,3.61-13,.75-21.91-4.95-15.48-16.45-22.54-25-22.54Z"/><path class="cls-12" d="M284.22,91.27c-12-6.6-14.05-13.18-14.41-19.2a16.56,16.56,0,0,1,.08-2c-2.1,2.33-3.34,5.44-3.08,9.82.36,6,2.4,12.6,14.41,19.21,11.68,6.42,33.55,8.81,35.25-8.24C309.72,99,293.65,96.46,284.22,91.27Z"/><path class="cls-12" d="M121,116.48c-9.31-3.27-13.18-13-12.83-23.37-4.28,13.7-1.5,29.77,11,34.18,22.21,7.8,45.62,2.4,48.62-29.41a8.6,8.6,0,0,0,0-1C161.24,119.9,140.65,123.4,121,116.48Z"/><path class="cls-12" d="M132.59,175.22a12.07,12.07,0,0,1-.22-1.72c0-.89-.67-1.06-1.58-.92A23.26,23.26,0,0,0,132.59,175.22Z"/><path class="cls-12" d="M152.33,198.53c1.16,6.71-2.62,14.08-17.56,18.19-11.47,3.15-18.79.38-23-5,2.39,10,10.37,17.28,26.55,12.83C159.58,218.69,158.3,206.3,152.33,198.53Z"/><path class="cls-12" d="M383.41,77.13a2.66,2.66,0,0,0-1.26,2.26A8.59,8.59,0,0,0,383.41,77.13Z"/><path class="cls-12" d="M394.65,133.29c-18.6,6-33.61,0-39.61-22.21a15.79,15.79,0,0,1-.53-3.8,13.92,13.92,0,0,0-1.27,11c6,22.21,21,28.21,39.61,22.21,8.49-2.74,12.33-9.74,13.39-18.07A18.07,18.07,0,0,1,394.65,133.29Z"/><path class="cls-12" d="M242.2,191.51c-28.81,3.6-41.41-18.61-36.61-34.21a52.05,52.05,0,0,1,4.34-9.86,56.4,56.4,0,0,0-11.54,20.06c-4.8,15.6,7.8,37.81,36.61,34.21,14.5-1.81,21.69-9.1,24.35-16.88C255.36,188.08,249.81,190.56,242.2,191.51Z"/><path class="cls-12" d="M433.07,192.11c-.14-.42-.32-.74-.46-1.14,1.91,11.46-3.66,17.65-15.15,19.74-9.68,1.76-20.27-3.29-24.55-11.53.89,12,14.3,20.33,26.35,18.14C432.47,214.91,437.87,207.11,433.07,192.11Z"/><path class="cls-13" d="M152.17,85.87s-10.8-11.4-21.6-8.4S145.57,88.87,152.17,85.87Z"/><path class="cls-13" d="M161.78,103.28s2.4-6.6-1.8-9S155.77,104.48,161.78,103.28Z"/><path class="cls-13" d="M311.83,84.67c-2.44-.4-9.61,4.2-4.21,5.4S315.43,85.27,311.83,84.67Z"/><path class="cls-13" d="M401.86,110.48s-1.2-19.81-8.41-23.41S397.65,107.48,401.86,110.48Z"/><path class="cls-13" d="M400.06,118.88c-4.23-.38-12.61,6-6,7.21S406.66,119.48,400.06,118.88Z"/><path class="cls-13" d="M428.87,191.51s-4.81-15-12.61-13.81S423.46,185.51,428.87,191.51Z"/><path class="cls-13" d="M427.66,197.51c-5.69,0-10.2,6.6-4.8,6.6S431.87,197.51,427.66,197.51Z"/><path class="cls-13" d="M248.81,163.3s-6-8.4-7.21-16.21S223.6,145.89,248.81,163.3Z"/><path class="cls-13" d="M253.61,173.5c-5.49-.68-6,9-1.8,9S258.41,174.1,253.61,173.5Z"/><path class="cls-13" d="M146.17,198.71s-11.4-6-14.4-14.4-7.81-3.61-4.2,3S138.37,198.11,146.17,198.71Z"/><path class="cls-13" d="M311.23,77.47s-3.61-21.61-9.61-21.61S304.62,74.47,311.23,77.47Z"/><path class="cls-8" d="M141.37,446a3.59,3.59,0,0,1-3.53-2.91l-34.47-176a3.6,3.6,0,1,1,7.07-1.38l34.46,176a3.59,3.59,0,0,1-2.84,4.22A3.23,3.23,0,0,1,141.37,446Z"/><path class="cls-8" d="M183.38,458.14a3.59,3.59,0,0,1-3.57-3.22L159.55,262.71a3.6,3.6,0,1,1,7.16-.76L187,454.17a3.59,3.59,0,0,1-3.21,3.95A2.42,2.42,0,0,1,183.38,458.14Z"/><path class="cls-8" d="M228.4,461.3a3.6,3.6,0,0,1-3.6-3.46l-7.65-193.57a3.6,3.6,0,1,1,7.2-.28L232,457.55a3.6,3.6,0,0,1-3.46,3.74Z"/><path class="cls-8" d="M272.07,461.3H272a3.61,3.61,0,0,1-3.5-3.71l5.86-194.92a3.84,3.84,0,0,1,3.71-3.49,3.61,3.61,0,0,1,3.49,3.71L275.67,457.8A3.6,3.6,0,0,1,272.07,461.3Z"/><path class="cls-8" d="M320.23,455.89h-.29a3.59,3.59,0,0,1-3.3-3.88l15.3-190.86a3.61,3.61,0,0,1,7.19.58L323.82,452.58A3.6,3.6,0,0,1,320.23,455.89Z"/><path class="cls-8" d="M364.35,442.39a3.58,3.58,0,0,1-3.56-4.16L388.7,260a3.6,3.6,0,0,1,7.11,1.11L367.9,439.34A3.6,3.6,0,0,1,364.35,442.39Z"/></svg>