<?xml version="1.0" encoding="utf-8"?><!-- Generator: Adobe Illustrator 15.0.0, SVG Export Plug-In . SVG Version: 6.00 Build 0)  --><!DOCTYPE svg PUBLIC "-//W3C//DTD SVG 1.1//EN" "http://www.w3.org/Graphics/SVG/1.1/DTD/svg11.dtd"><svg xmlns="http://www.w3.org/2000/svg" xmlns:xlink="http://www.w3.org/1999/xlink" width="41" height="41" version="1.1" x="0px" y="0px"  viewBox="0 0 48 48" enable-background="new 0 0 48 48" xml:space="preserve">
<circle fill="#F44336" cx="24" cy="10" r="4"/>
<path fill="#795548" d="M41,26c0-4.419-7.611-8-17-8S7,21.581,7,26c0,1.061,0.501,1.551,1.385,1.688C8.814,29.534,15.454,31,24,31  c8.484,0,15.063-1.445,15.575-3.271C40.497,27.685,41,27.217,41,26z"/>
<polygon fill="#FF80AB" points="35,41 13,41 8,27 10,29 12,27 14,29 16,27 18,29 20,27 22,29 24,27 26,29 28,27 30,29 32,27 34,29   36,27 38,29 40,27 "/>
<path fill="#5D4037" d="M41,26c0-0.371-0.072-0.734-0.177-1.093l-0.865-0.698L38,26.172l-0.586-0.586L36,24.172l-1.414,1.414  L34,26.172l-0.586-0.586L32,24.172l-1.414,1.414L30,26.172l-0.586-0.586L28,24.172l-1.414,1.414L26,26.172l-0.586-0.586L24,24.172  l-1.414,1.414L22,26.172l-0.586-0.586L20,24.172l-1.414,1.414L18,26.172l-0.586-0.586L16,24.172l-1.414,1.414L14,26.172  l-0.586-0.586L12,24.172l-1.414,1.414L10,26.172l-2-1.88l-0.917,0.933C7.031,25.479,7,25.738,7,26c0,0.977,0.44,1.454,1.198,1.634  L8,27l2,2l2-2l2,2l2-2l2,2l2-2l2,2l2-2l2,2l2-2l2,2l2-2l2,2l2-2l2,2l2-2l-0.221,0.705C40.568,27.602,41,27.121,41,26z"/>
<g>
	<polygon fill="#F8BBD0" points="20,27 18,29 20.126,41 21.417,41  "/>
	<polygon fill="#F8BBD0" points="16,27 14,29 17,41 18.501,41  "/>
	<polygon fill="#F8BBD0" points="12,27 10,29 14,41 15.458,41  "/>
	<polygon fill="#F8BBD0" points="27.988,27 26,29 25.386,41 26.583,41  "/>
	<polygon fill="#F8BBD0" points="31.988,27 30,29 28.167,41 29.458,41  "/>
	<polygon fill="#F8BBD0" points="36,27 34,29 31.083,41 32.5,41.042  "/>
	<polygon fill="#F8BBD0" points="24,27 22,29 22.751,41 24,41  "/>
	<polygon fill="#F8BBD0" points="38,29 40,27 35,41 33.792,41  "/>
</g>
<path fill="#FFE0B2" d="M34.913,17.692c0,4.52-4.885,1.723-10.913,1.723s-10.913,2.797-10.913-1.723C13.087,13.171,17.972,11,24,11  S34.913,13.171,34.913,17.692z"/>
</svg>