<?xml version="1.0" encoding="iso-8859-1"?>
<!-- Generator: Adobe Illustrator 19.1.0, SVG Export Plug-In . SVG Version: 6.00 Build 0)  -->
<svg version="1.1" id="Capa_1" xmlns="http://www.w3.org/2000/svg" xmlns:xlink="http://www.w3.org/1999/xlink" width="37" height="37" x="20px" y="30px"
	 viewBox="0 0 63.938 63.938" style="enable-background:new 0 0 63.938 63.938;" xml:space="preserve">
<g>
	<g id="group-28svg">
		<path id="path-1_19_" style="fill:#EDC951;" d="M8.242,41.678l7.886,22.26h37.184l7.886-22.26c0.249-0.692-0.265-1.74-1-1.74
			H9.242C8.506,39.938,7.994,40.986,8.242,41.678z"/>
		<path id="path-2_19_" style="fill:#E56A77;" d="M17.447,39.938c-4.372,0-7.916-3.771-7.916-8.143s3.544-8.03,7.916-8.03
			c0.577,0,1.139,0.008,1.68,0.126c-0.612-1.124-0.96-2.44-0.96-3.81c0-4.372,3.544-7.931,7.917-7.931
			c0.255,0,0.507,0.008,0.757,0.032c-0.023-0.25-0.038-0.506-0.038-0.762c0-4.372,3.544-7.918,7.917-7.918
			c4.372,0,7.916,3.543,7.916,7.915c0,0.256-0.014,0.509-0.038,0.758c0.25-0.024,0.502-0.038,0.758-0.038
			c4.372,0,7.917,3.544,7.917,7.916c0,1.369-0.349,2.657-0.96,3.781c0.542-0.117,1.103-0.183,1.68-0.183
			c4.372,0,7.916,3.772,7.916,8.144s-3.544,8.143-7.916,8.143H17.447z"/>
		<path id="path-3_19_" style="fill:#8B71B5;" d="M42.816,11.417c0,4.372-3.544,7.916-7.916,7.916s-7.917-3.544-7.917-7.916
			c0-4.373,3.545-7.917,7.917-7.917S42.816,7.044,42.816,11.417z"/>
		<path id="path-4_19_" d="M47.993,38.938H13.447c-5.193,0-9.416-4.213-9.416-9.393c0-5.005,3.933-9.109,8.875-9.39
			c-0.158-0.689-0.239-1.395-0.239-2.105c0-4.939,3.823-9.002,8.666-9.385C21.717,3.822,25.781,0,30.72,0
			c4.94,0,9.003,3.823,9.387,8.666c4.843,0.383,8.666,4.447,8.666,9.387c0,0.713-0.081,1.423-0.24,2.113
			c4.941,0.281,8.876,4.38,8.876,9.379C57.409,34.725,53.185,38.938,47.993,38.938z M13.447,23.14c-3.538,0-6.416,2.873-6.416,6.405
			c0,3.525,2.878,6.393,6.416,6.393h34.546c3.538,0,6.416-2.868,6.416-6.393c0-3.526-2.878-6.394-6.416-6.394
			c-0.448,0-0.906,0.05-1.363,0.149c-0.571,0.123-1.167-0.097-1.518-0.567c-0.351-0.469-0.397-1.101-0.116-1.616
			c0.508-0.935,0.777-1.995,0.777-3.064c0-3.538-2.879-6.417-6.417-6.417c-0.208,0-0.412,0.012-0.615,0.032
			c-0.445,0.041-0.886-0.116-1.202-0.432c-0.317-0.316-0.476-0.756-0.434-1.201c0.019-0.204,0.031-0.41,0.031-0.619
			C37.136,5.878,34.258,3,30.72,3s-6.417,2.878-6.417,6.416c0,0.208,0.013,0.414,0.032,0.618c0.042,0.445-0.118,0.885-0.434,1.201
			c-0.316,0.317-0.759,0.475-1.202,0.432c-0.203-0.02-0.407-0.032-0.615-0.032c-3.539,0-6.417,2.878-6.417,6.415
			c0,1.083,0.261,2.113,0.777,3.061c0.28,0.515,0.234,1.147-0.117,1.617c-0.351,0.469-0.945,0.69-1.518,0.566
			C14.329,23.19,13.883,23.14,13.447,23.14z"/>
		<path id="path-5_19_" d="M30.9,18.833c-5.192,0-9.417-4.224-9.417-9.416S25.708,0,30.9,0s9.416,4.225,9.416,9.417
			S36.092,18.833,30.9,18.833z M30.9,3c-3.538,0-6.417,2.878-6.417,6.417c0,3.538,2.879,6.416,6.417,6.416s6.416-2.878,6.416-6.416
			C37.316,5.878,34.438,3,30.9,3z"/>
		<path id="path-6_16_" d="M49.312,62.938H12.128c-0.636,0-1.203-0.4-1.415-0.999l-7.885-22.26
			c-0.301-0.839-0.144-1.854,0.411-2.643c0.491-0.698,1.221-1.098,2.003-1.098h50.957c0.782,0,1.512,0.401,2.003,1.099
			c0.555,0.79,0.711,1.805,0.407,2.649l-7.883,22.253C50.514,62.538,49.948,62.938,49.312,62.938z M13.187,59.938h35.066l7.438-21
			H5.749L13.187,59.938z"/>
		<path id="path-7_12_" d="M33.329,10.917c-0.73,0-1.369-0.533-1.482-1.276c-0.164-1.087-1.052-1.303-1.321-1.344
			c-0.81-0.121-1.386-0.871-1.278-1.682c0.107-0.811,0.832-1.387,1.642-1.295c1.176,0.134,3.508,1.116,3.924,3.873
			c0.123,0.819-0.44,1.583-1.26,1.707C33.479,10.912,33.403,10.917,33.329,10.917z"/>
		<path id="path-8_10_" d="M43.999,34.7c-3.36,0-6.992-0.885-8.04-1.16c-0.801-0.21-1.281-1.03-1.071-1.831
			c0.21-0.801,1.034-1.279,1.831-1.071c4.213,1.103,9.475,1.526,10.588,0.397c0.4-0.404,0.371-0.647,0.361-0.738
			c-0.078-0.661-1.057-1.56-1.695-1.959c-0.7-0.439-0.917-1.362-0.481-2.064c0.435-0.702,1.358-0.921,2.058-0.488
			c0.287,0.177,2.813,1.794,3.096,4.15c0.098,0.809-0.032,2.022-1.204,3.207C48.279,34.32,46.197,34.699,43.999,34.7z"/>
	</g>
</g>
<g>
</g>
<g>
</g>
<g>
</g>
<g>
</g>
<g>
</g>
<g>
</g>
<g>
</g>
<g>
</g>
<g>
</g>
<g>
</g>
<g>
</g>
<g>
</g>
<g>
</g>
<g>
</g>
<g>
</g>
</svg>
