<?xml version="1.0" encoding="UTF-8" standalone="no"?>
<!-- Created with Inkscape (http://www.inkscape.org/) -->

<svg
   xmlns:dc="http://purl.org/dc/elements/1.1/"
   xmlns:cc="http://creativecommons.org/ns#"
   xmlns:rdf="http://www.w3.org/1999/02/22-rdf-syntax-ns#"
   xmlns:svg="http://www.w3.org/2000/svg"
   xmlns="http://www.w3.org/2000/svg"
   xmlns:sodipodi="http://sodipodi.sourceforge.net/DTD/sodipodi-0.dtd"
   xmlns:inkscape="http://www.inkscape.org/namespaces/inkscape"
  width="39" height="39"
   viewBox="0 0 8.5493193 11.337851"
   version="1.1"
   id="svg5889"
   inkscape:version="0.92.3 (2405546, 2018-03-11)"
   sodipodi:docname="food-cake.svg">
  <defs
     id="defs5883" />
  <sodipodi:namedview
     id="base"
     pagecolor="#ffffff"
     bordercolor="#666666"
     borderopacity="1.0"
     inkscape:pageopacity="0.0"
     inkscape:pageshadow="2"
     inkscape:zoom="3.06"
     inkscape:cx="90.680472"
     inkscape:cy="13.943111"
     inkscape:document-units="mm"
     inkscape:current-layer="layer1"
     showgrid="false"
     fit-margin-top="1"
     fit-margin-bottom="1"
     fit-margin-right="1"
     fit-margin-left="1"
     inkscape:window-width="1853"
     inkscape:window-height="1025"
     inkscape:window-x="67"
     inkscape:window-y="27"
     inkscape:window-maximized="1" />
  <metadata
     id="metadata5886">
    <rdf:RDF>
      <cc:Work
         rdf:about="">
        <dc:format>image/svg+xml</dc:format>
        <dc:type
           rdf:resource="http://purl.org/dc/dcmitype/StillImage" />
        <dc:title></dc:title>
      </cc:Work>
    </rdf:RDF>
  </metadata>
  <g
     inkscape:label="Capa 1"
     inkscape:groupmode="layer"
     id="layer1"
     transform="translate(-81.840792,-113.81391)">
    <g
       transform="matrix(0.35277777,0,0,-0.35277777,37.909181,243.85663)"
       id="g6371">
      <g
         transform="translate(127.3652,351.8159)"
         id="g2128">
        <path
           inkscape:connector-curvature="0"
           id="path2130"
           style="fill:#8c6049;fill-opacity:1;fill-rule:nonzero;stroke:none"
           d="M 0,0 1.836,-0.364 1.115,-1.373 Z" />
      </g>
      <g
         transform="translate(145.9302,351.8159)"
         id="g2132">
        <path
           inkscape:connector-curvature="0"
           id="path2134"
           style="fill:#8c6049;fill-opacity:1;fill-rule:nonzero;stroke:none"
           d="m 0,0 -1.836,-0.364 0.721,-1.009 z" />
      </g>
      <g
         transform="translate(141.1108,356.2856)"
         id="g2136">
        <path
           inkscape:connector-curvature="0"
           id="path2138"
           style="fill:#2c160f;fill-opacity:1;fill-rule:nonzero;stroke:none"
           d="M 0,0 C 0.131,-0.04 0.248,-0.098 0.354,-0.171 0.553,0.004 0.78,0.115 1.142,0.005 1.146,0.004 1.15,0.002 1.155,0 0.192,2.208 -2.023,3.753 -4.603,3.753 -4.798,3.753 -4.99,3.744 -5.18,3.726 -2.851,3.515 -0.89,2.042 0,0" />
      </g>
      <g
         transform="translate(142.2656,356.2856)"
         id="g2140">
        <path
           inkscape:connector-curvature="0"
           id="path2142"
           style="fill:#7a5140;fill-opacity:1;fill-rule:nonzero;stroke:none"
           d="m 0,0 c -0.005,0.002 -0.008,0.004 -0.013,0.005 -0.362,0.11 -0.589,-0.001 -0.788,-0.176 0.077,-0.051 0.147,-0.112 0.213,-0.178 0.286,-0.288 0.47,-0.692 0.589,-1.104 0.096,-0.031 0.186,-0.07 0.272,-0.119 0.051,0.038 0.103,0.072 0.159,0.1 0.164,0.081 0.353,0.114 0.597,0.056 0.028,-0.006 0.055,-0.013 0.086,-0.022 0.013,-0.003 0.026,-0.01 0.04,-0.015 C 0.97,-0.816 0.629,-0.196 0,0" />
      </g>
      <g
         transform="translate(143.4204,354.833)"
         id="g2144">
        <path
           inkscape:connector-curvature="0"
           id="path2146"
           style="fill:#d7c19b;fill-opacity:1;fill-rule:nonzero;stroke:none"
           d="M 0,0 C -0.014,0.004 -0.026,0.011 -0.04,0.015 -0.07,0.024 -0.098,0.03 -0.126,0.037 -0.37,0.094 -0.559,0.062 -0.723,-0.02 c -0.056,-0.027 -0.108,-0.061 -0.158,-0.1 0.066,-0.037 0.13,-0.081 0.191,-0.128 0.43,-0.33 0.696,-0.865 0.862,-1.418 0.014,-0.049 0.028,-0.098 0.041,-0.147 0.249,-0.934 0.224,-1.861 0.224,-1.861 h 1.154 c 0,0 0.083,3.117 -1.591,3.674" />
      </g>
      <g
         transform="translate(141.0234,351.1592)"
         id="g2148">
        <path
           inkscape:connector-curvature="0"
           id="path2150"
           style="fill:#422012;fill-opacity:1;fill-rule:nonzero;stroke:none"
           d="m 0,0 h -10.184 -1.153 c 1.005,-2.103 3.165,-3.557 5.668,-3.557 0.193,0 0.387,0.01 0.576,0.027 0.191,-0.017 0.383,-0.027 0.578,-0.027 2.502,0 4.661,1.454 5.668,3.557 z" />
      </g>
      <g
         transform="translate(130.564,355.8032)"
         id="g2152">
        <path
           inkscape:connector-curvature="0"
           id="path2154"
           style="fill:#422012;fill-opacity:1;fill-rule:nonzero;stroke:none"
           d="m 0,0 c 0.222,-0.197 0.46,-0.378 0.902,-0.378 0.103,0 0.194,0.011 0.278,0.029 0.112,0.024 0.211,0.062 0.299,0.109 0.446,0.244 0.629,0.728 1.349,0.728 0.243,0 0.425,-0.056 0.576,-0.138 0.113,-0.062 0.209,-0.138 0.3,-0.217 0.274,-0.24 0.511,-0.511 1.05,-0.511 0.104,0 0.195,0.011 0.278,0.029 0.114,0.024 0.212,0.062 0.299,0.109 0.448,0.244 0.63,0.728 1.351,0.728 0.243,0 0.424,-0.056 0.576,-0.138 0.112,-0.062 0.208,-0.138 0.3,-0.217 0.274,-0.24 0.511,-0.511 1.05,-0.511 0.1,0 0.189,0.013 0.271,0.034 0.104,0.028 0.195,0.07 0.277,0.121 C 9.64,0.081 9.829,0.701 10.535,0.488 10.541,0.487 10.543,0.484 10.547,0.482 9.657,2.524 7.696,3.998 5.367,4.208 3.038,3.998 1.077,2.524 0.187,0.484 0.167,0.485 0.149,0.488 0.129,0.488 c 0,0 -0.148,-0.104 -0.342,-0.303 C -0.151,0.136 -0.092,0.083 -0.034,0.03 -0.022,0.02 -0.011,0.01 0,0" />
      </g>
      <g
         transform="translate(141.4644,356.1147)"
         id="g2156">
        <path
           inkscape:connector-curvature="0"
           id="path2158"
           style="fill:#8c6049;fill-opacity:1;fill-rule:nonzero;stroke:none"
           d="M 0,0 C -0.106,0.073 -0.223,0.131 -0.354,0.171 -0.3,0.05 -0.25,-0.073 -0.205,-0.199 -0.137,-0.128 -0.07,-0.06 0,0" />
      </g>
      <g
         transform="translate(141.2598,355.9155)"
         id="g2160">
        <path
           inkscape:connector-curvature="0"
           id="path2162"
           style="fill:#8c6049;fill-opacity:1;fill-rule:nonzero;stroke:none"
           d="m 0,0 c 0.002,-0.005 0.002,-0.01 0.005,-0.014 0.071,-0.032 0.136,-0.069 0.2,-0.112 0.066,0.058 0.136,0.109 0.213,0.147 C 0.352,0.087 0.282,0.148 0.205,0.199 0.134,0.139 0.067,0.071 0,0" />
      </g>
      <g
         transform="translate(142.1411,354.8701)"
         id="g2164">
        <path
           inkscape:connector-curvature="0"
           id="path2166"
           style="fill:#8c6049;fill-opacity:1;fill-rule:nonzero;stroke:none"
           d="M 0,0 C 0.029,-0.007 0.056,-0.013 0.085,-0.022 0.099,-0.026 0.111,-0.033 0.126,-0.037 0.006,0.375 -0.178,0.779 -0.463,1.067 -0.541,1.029 -0.611,0.978 -0.677,0.919 -0.366,0.707 -0.15,0.371 0,0" />
      </g>
      <g
         transform="translate(137.2456,355.9648)"
         id="g2168">
        <path
           inkscape:connector-curvature="0"
           id="path2170"
           style="fill:#8c6049;fill-opacity:1;fill-rule:nonzero;stroke:none"
           d="M 0,0 C 0.103,0 0.194,-0.011 0.276,-0.029 0.37,0.05 0.464,0.126 0.576,0.188 0.425,0.271 0.244,0.326 0,0.326 c -0.72,0 -0.902,-0.483 -1.351,-0.728 0.088,-0.047 0.187,-0.085 0.3,-0.108 C -0.777,-0.271 -0.54,0 0,0" />
      </g>
      <g
         transform="translate(133.3916,355.9648)"
         id="g2172">
        <path
           inkscape:connector-curvature="0"
           id="path2174"
           style="fill:#8c6049;fill-opacity:1;fill-rule:nonzero;stroke:none"
           d="M 0,0 C 0.104,0 0.195,-0.011 0.278,-0.029 0.37,0.05 0.465,0.126 0.577,0.188 0.425,0.271 0.244,0.326 0,0.326 c -0.719,0 -0.902,-0.483 -1.349,-0.728 0.087,-0.047 0.185,-0.085 0.299,-0.108 C -0.776,-0.271 -0.539,0 0,0" />
      </g>
      <g
         transform="translate(141.0986,355.9648)"
         id="g2176">
        <path
           inkscape:connector-curvature="0"
           id="path2178"
           style="fill:#8c6049;fill-opacity:1;fill-rule:nonzero;stroke:none"
           d="m 0,0 c 0.054,-0.016 0.104,-0.036 0.153,-0.058 0.002,0.003 0.006,0.006 0.008,0.009 C 0.116,0.077 0.066,0.2 0.012,0.321 0.008,0.323 0.006,0.325 0,0.326 -0.706,0.54 -0.895,-0.081 -1.378,-0.384 -1.3,-0.431 -1.213,-0.469 -1.114,-0.495 -0.797,-0.189 -0.562,0.17 0,0" />
      </g>
      <g
         transform="translate(130.5303,355.833)"
         id="g2180">
        <path
           inkscape:connector-curvature="0"
           id="path2182"
           style="fill:#8c6049;fill-opacity:1;fill-rule:nonzero;stroke:none"
           d="M 0,0 C -0.059,0.053 -0.117,0.106 -0.179,0.155 -0.235,0.099 -0.296,0.033 -0.358,-0.04 -0.294,-0.081 -0.235,-0.124 -0.179,-0.17 -0.112,-0.102 -0.051,-0.045 0,0" />
      </g>
      <g
         transform="translate(133.9683,355.8271)"
         id="g2184">
        <path
           inkscape:connector-curvature="0"
           id="path2186"
           style="fill:#8c6049;fill-opacity:1;fill-rule:nonzero;stroke:none"
           d="M 0,0 C 0.087,0.047 0.187,0.084 0.299,0.109 0.208,0.188 0.112,0.264 0,0.326 -0.112,0.264 -0.207,0.188 -0.299,0.109 -0.185,0.083 -0.086,0.047 0,0" />
      </g>
      <g
         transform="translate(139.7202,355.2549)"
         id="g2188">
        <path
           inkscape:connector-curvature="0"
           id="path2190"
           style="fill:#8c6049;fill-opacity:1;fill-rule:nonzero;stroke:none"
           d="M 0,0 C 0.098,0.062 0.185,0.136 0.265,0.215 0.165,0.241 0.079,0.279 0,0.326 -0.083,0.274 -0.173,0.232 -0.277,0.205 -0.191,0.129 -0.103,0.06 0,0" />
      </g>
      <g
         transform="translate(141.2598,355.9155)"
         id="g2192">
        <path
           inkscape:connector-curvature="0"
           id="path2194"
           style="fill:#8c6049;fill-opacity:1;fill-rule:nonzero;stroke:none"
           d="M 0,0 C -0.002,-0.002 -0.006,-0.005 -0.008,-0.008 -0.004,-0.01 0,-0.012 0.005,-0.014 0.002,-0.01 0.002,-0.005 0,0" />
      </g>
      <g
         transform="translate(135.895,355.2363)"
         id="g2196">
        <path
           inkscape:connector-curvature="0"
           id="path2198"
           style="fill:#8c6049;fill-opacity:1;fill-rule:nonzero;stroke:none"
           d="M 0,0 C 0.112,0.062 0.208,0.139 0.299,0.218 0.187,0.242 0.088,0.28 0,0.327 -0.087,0.28 -0.186,0.242 -0.299,0.218 -0.207,0.139 -0.112,0.062 0,0" />
      </g>
      <g
         transform="translate(137.8218,355.8276)"
         id="g2200">
        <path
           inkscape:connector-curvature="0"
           id="path2202"
           style="fill:#8c6049;fill-opacity:1;fill-rule:nonzero;stroke:none"
           d="M 0,0 C 0.087,0.047 0.187,0.084 0.3,0.108 0.208,0.187 0.112,0.264 0,0.325 -0.112,0.264 -0.207,0.187 -0.3,0.108 -0.186,0.084 -0.086,0.047 0,0" />
      </g>
      <g
         transform="translate(132.043,355.2363)"
         id="g2204">
        <path
           inkscape:connector-curvature="0"
           id="path2206"
           style="fill:#8c6049;fill-opacity:1;fill-rule:nonzero;stroke:none"
           d="M 0,0 C 0.111,0.062 0.208,0.139 0.299,0.218 0.185,0.242 0.086,0.28 0,0.327 -0.088,0.28 -0.187,0.242 -0.299,0.218 -0.208,0.139 -0.113,0.062 0,0" />
      </g>
      <g
         transform="translate(130.564,355.8032)"
         id="g2208">
        <path
           inkscape:connector-curvature="0"
           id="path2210"
           style="fill:#8c6049;fill-opacity:1;fill-rule:nonzero;stroke:none"
           d="M 0,0 C -0.011,0.01 -0.022,0.02 -0.034,0.03 -0.085,-0.016 -0.146,-0.072 -0.213,-0.14 -0.168,-0.178 -0.124,-0.216 -0.08,-0.255 -0.055,-0.168 -0.028,-0.084 0,0" />
      </g>
      <g
         transform="translate(139.7202,355.2549)"
         id="g2212">
        <path
           inkscape:connector-curvature="0"
           id="path2214"
           style="fill:#8c6049;fill-opacity:1;fill-rule:nonzero;stroke:none"
           d="M 0,0 C -0.103,0.06 -0.191,0.129 -0.277,0.205 -0.359,0.183 -0.448,0.17 -0.548,0.17 -1.087,0.17 -1.325,0.441 -1.599,0.681 -1.712,0.657 -1.811,0.62 -1.898,0.573 c 0.448,-0.245 0.63,-0.729 1.35,-0.729 0.226,0 0.401,0.063 0.548,0.156" />
      </g>
      <g
         transform="translate(135.895,355.2363)"
         id="g2216">
        <path
           inkscape:connector-curvature="0"
           id="path2218"
           style="fill:#8c6049;fill-opacity:1;fill-rule:nonzero;stroke:none"
           d="M 0,0 C -0.112,0.062 -0.207,0.139 -0.299,0.218 -0.382,0.2 -0.473,0.189 -0.577,0.189 c -0.539,0 -0.777,0.271 -1.05,0.511 -0.113,-0.025 -0.212,-0.062 -0.3,-0.109 0.448,-0.245 0.631,-0.729 1.35,-0.729 0.244,0 0.426,0.055 0.577,0.138" />
      </g>
      <g
         transform="translate(130.564,355.8032)"
         id="g2220">
        <path
           inkscape:connector-curvature="0"
           id="path2222"
           style="fill:#8c6049;fill-opacity:1;fill-rule:nonzero;stroke:none"
           d="m 0,0 c -0.028,-0.084 -0.055,-0.168 -0.08,-0.255 0.247,-0.222 0.488,-0.45 0.982,-0.45 0.243,0 0.426,0.056 0.577,0.138 C 1.366,-0.504 1.271,-0.428 1.18,-0.349 1.096,-0.367 1.005,-0.378 0.902,-0.378 0.46,-0.378 0.222,-0.197 0,0" />
      </g>
      <g
         transform="translate(141.4644,355.7896)"
         id="g2224">
        <path
           inkscape:connector-curvature="0"
           id="path2226"
           style="fill:#d3b396;fill-opacity:1;fill-rule:nonzero;stroke:none"
           d="m 0,0 c -0.063,0.043 -0.129,0.08 -0.199,0.112 -0.006,0.002 -0.009,0.004 -0.013,0.006 -0.049,0.022 -0.1,0.042 -0.154,0.057 -0.562,0.17 -0.797,-0.189 -1.113,-0.495 -0.081,-0.079 -0.167,-0.153 -0.265,-0.215 -0.148,-0.093 -0.322,-0.156 -0.548,-0.156 -0.72,0 -0.902,0.484 -1.351,0.729 -0.086,0.047 -0.186,0.084 -0.299,0.108 -0.083,0.018 -0.174,0.029 -0.277,0.029 -0.54,0 -0.777,-0.271 -1.051,-0.51 -0.091,-0.08 -0.187,-0.156 -0.299,-0.218 -0.152,-0.083 -0.333,-0.138 -0.577,-0.138 -0.719,0 -0.902,0.483 -1.35,0.729 -0.087,0.046 -0.185,0.083 -0.299,0.108 -0.083,0.018 -0.174,0.029 -0.278,0.029 -0.539,0 -0.776,-0.271 -1.05,-0.51 -0.091,-0.08 -0.188,-0.156 -0.298,-0.218 -0.152,-0.083 -0.335,-0.138 -0.578,-0.138 -0.493,0 -0.734,0.228 -0.981,0.45 -0.044,0.039 -0.088,0.077 -0.133,0.115 -0.056,0.046 -0.116,0.089 -0.179,0.129 -0.228,-0.266 -0.477,-0.636 -0.636,-1.099 -0.036,-0.031 -0.077,-0.07 -0.122,-0.112 0.025,-0.018 0.048,-0.034 0.071,-0.052 0.029,-0.023 0.057,-0.045 0.084,-0.07 0.211,-0.179 0.4,-0.379 0.671,-0.506 0.164,-0.077 0.357,-0.129 0.608,-0.129 0.235,0 0.419,0.045 0.577,0.114 0.607,0.266 0.795,0.909 1.698,0.909 0.234,0 0.419,-0.044 0.576,-0.114 0.608,-0.266 0.796,-0.909 1.699,-0.909 0.235,0 0.42,0.045 0.577,0.114 0.608,0.266 0.796,0.909 1.698,0.909 0.235,0 0.419,-0.044 0.577,-0.114 0.609,-0.266 0.797,-0.909 1.7,-0.909 0.217,0 0.394,0.05 0.548,0.128 0.437,0.221 0.669,0.672 1.047,0.861 0.163,0.081 0.352,0.114 0.596,0.057 C 0.527,-0.549 0.311,-0.213 0,0" />
      </g>
      <g
         transform="translate(143.6338,353.0195)"
         id="g2228">
        <path
           inkscape:connector-curvature="0"
           id="path2230"
           style="fill:#e7d8b7;fill-opacity:1;fill-rule:nonzero;stroke:none"
           d="M 0,0 C -0.013,0.049 -0.027,0.099 -0.042,0.148 -0.208,0.701 -0.474,1.236 -0.904,1.566 -0.965,1.613 -1.028,1.657 -1.095,1.694 -1.181,1.743 -1.271,1.782 -1.367,1.813 -1.381,1.818 -1.394,1.825 -1.408,1.828 -1.437,1.837 -1.464,1.844 -1.493,1.851 -1.737,1.908 -1.926,1.875 -2.089,1.794 -2.466,1.605 -2.699,1.154 -3.135,0.933 -3.289,0.855 -3.466,0.805 -3.683,0.805 c -0.903,0 -1.091,0.643 -1.7,0.909 -0.158,0.07 -0.343,0.114 -0.577,0.114 -0.903,0 -1.091,-0.643 -1.698,-0.909 C -7.816,0.85 -8,0.805 -8.235,0.805 c -0.904,0 -1.092,0.643 -1.699,0.909 -0.158,0.07 -0.343,0.114 -0.577,0.114 -0.902,0 -1.091,-0.643 -1.697,-0.909 -0.158,-0.069 -0.343,-0.114 -0.578,-0.114 -0.25,0 -0.443,0.052 -0.608,0.129 -0.271,0.127 -0.46,0.327 -0.67,0.506 -0.028,0.025 -0.056,0.047 -0.084,0.07 -0.023,0.018 -0.047,0.034 -0.071,0.052 -0.094,-0.09 -0.202,-0.202 -0.316,-0.337 -0.23,-0.272 -0.478,-0.633 -0.66,-1.077 -0.044,-0.104 -0.082,-0.212 -0.117,-0.325 -0.147,-0.483 -0.209,-1.047 -0.098,-1.683 h 1.462 1.154 10.184 1.152 1.682 c 0,0 0.025,0.926 -0.224,1.86" />
      </g>
      <g
         transform="translate(134.0498,353.9575)"
         id="g2232">
        <path
           inkscape:connector-curvature="0"
           id="path2234"
           style="fill:#f2edda;fill-opacity:1;fill-rule:nonzero;stroke:none"
           d="m 0,0 c 0,-0.347 -0.444,-0.628 -0.99,-0.628 -0.548,0 -0.991,0.281 -0.991,0.628 0,0.347 0.443,0.628 0.991,0.628 C -0.444,0.628 0,0.347 0,0" />
      </g>
      <g
         transform="translate(136.2256,359.2095)"
         id="g2236">
        <path
           inkscape:connector-curvature="0"
           id="path2238"
           style="fill:#54362c;fill-opacity:1;fill-rule:nonzero;stroke:none"
           d="m 0,0 c 0.307,-0.495 -0.934,-0.581 -2.088,-1.297 -1.154,-0.717 -1.781,-1.791 -2.088,-1.297 -0.307,0.494 0.379,1.477 1.531,2.192 C -1.491,0.314 -0.307,0.494 0,0" />
      </g>
      <g
         transform="translate(133.2192,357.6489)"
         id="g2240">
        <path
           inkscape:connector-curvature="0"
           id="path2242"
           style="fill:#a88d82;fill-opacity:1;fill-rule:nonzero;stroke:none"
           d="m 0,0 c -0.33,-0.283 -0.668,-0.431 -0.756,-0.329 -0.088,0.103 0.108,0.416 0.436,0.7 C 0.01,0.654 0.348,0.801 0.437,0.7 0.525,0.597 0.329,0.285 0,0" />
      </g>
      <g
         transform="translate(136.6958,360.665)"
         id="g2244">
        <path
           inkscape:connector-curvature="0"
           id="path2246"
           style="fill:#8fb93f;fill-opacity:1;fill-rule:nonzero;stroke:none"
           d="m 0,0 -0.383,0.011 c 0.089,3.372 2.588,5.044 2.694,5.114 L 2.521,4.804 C 2.497,4.788 0.084,3.167 0,0" />
      </g>
      <g
         transform="translate(142.3926,365.0234)"
         id="g2248">
        <path
           inkscape:connector-curvature="0"
           id="path2250"
           style="fill:#71a241;fill-opacity:1;fill-rule:nonzero;stroke:none"
           d="m 0,0 c -1.644,0.925 -2.635,0.714 -3.039,0.542 l -0.399,0.225 -0.1,-0.18 5.59,-3.145 c 0,0 0.259,1.257 -2.052,2.558" />
      </g>
      <g
         transform="translate(144.4448,362.4658)"
         id="g2252">
        <path
           inkscape:connector-curvature="0"
           id="path2254"
           style="fill:#90c03e;fill-opacity:1;fill-rule:nonzero;stroke:none"
           d="M 0,0 -5.59,3.145 -5.691,2.966 -5.277,2.732 C -5.188,2.283 -4.816,1.305 -3.251,0.425 -0.923,-0.885 0,0 0,0" />
      </g>
      <g
         transform="translate(138.3979,361.1123)"
         id="g2256">
        <path
           inkscape:connector-curvature="0"
           id="path2258"
           style="fill:#da2036;fill-opacity:1;fill-rule:nonzero;stroke:none"
           d="m 0,0 c 0,-0.897 -0.728,-1.624 -1.624,-1.624 -0.897,0 -1.623,0.727 -1.623,1.624 0,0.896 0.726,1.623 1.623,1.623 C -0.728,1.623 0,0.896 0,0" />
      </g>
      <g
         transform="translate(137.2456,362.0269)"
         id="g2260">
        <path
           inkscape:connector-curvature="0"
           id="path2262"
           style="fill:#ec634d;fill-opacity:1;fill-rule:nonzero;stroke:none"
           d="m 0,0 c 0.245,-0.316 0.109,-0.83 -0.3,-1.145 -0.41,-0.316 -0.94,-0.315 -1.184,0.001 -0.243,0.317 -0.109,0.83 0.301,1.145 C -0.774,0.316 -0.244,0.316 0,0" />
      </g>
      <g
         transform="translate(132.9434,351.1909)"
         id="g2264">
        <path
           inkscape:connector-curvature="0"
           id="path2266"
           style="fill:#d2ad53;fill-opacity:1;fill-rule:nonzero;stroke:none"
           d="m 0,0 1.156,-11.87 h 1.2 L 1.781,0.583 Z" />
      </g>
      <g
         transform="translate(136.6377,351.1807)"
         id="g2268">
        <path
           inkscape:connector-curvature="0"
           id="path2270"
           style="fill:#fbe68c;fill-opacity:1;fill-rule:nonzero;stroke:none"
           d="m 0,0 -1.854,0.635 -0.06,-0.041 0.576,-12.453 H 0.178 L 0.038,0.025 Z" />
      </g>
      <g
         transform="translate(129.2192,351.1807)"
         id="g2272">
        <path
           inkscape:connector-curvature="0"
           id="path2274"
           style="fill:#d2ad53;fill-opacity:1;fill-rule:nonzero;stroke:none"
           d="M 0,0 -0.018,0.012 2.461,-11.859 H 3.555 L 1.808,0.603 Z" />
      </g>
      <g
         transform="translate(132.9292,351.1807)"
         id="g2276">
        <path
           inkscape:connector-curvature="0"
           id="path2278"
           style="fill:#fbe68c;fill-opacity:1;fill-rule:nonzero;stroke:none"
           d="M 0,0 -1.855,0.635 -1.902,0.603 -0.155,-11.859 H 1.17 L 0.014,0.01 Z" />
      </g>
      <g
         transform="translate(127.3652,351.8159)"
         id="g2280">
        <path
           inkscape:connector-curvature="0"
           id="path2282"
           style="fill:#fbe68c;fill-opacity:1;fill-rule:nonzero;stroke:none"
           d="m 0,0 v 0 l 3.175,-12.495 h 1.14 L 1.836,-0.623 Z" />
      </g>
      <g
         transform="translate(142.2017,351.8159)"
         id="g2284">
        <path
           inkscape:connector-curvature="0"
           id="path2286"
           style="fill:#d2ad53;fill-opacity:1;fill-rule:nonzero;stroke:none"
           d="m 0,0 -1.825,-0.615 -0.588,-11.88 h 0.889 l 1.535,12.487 z" />
      </g>
      <g
         transform="translate(144.0576,351.1807)"
         id="g2288">
        <path
           inkscape:connector-curvature="0"
           id="path2290"
           style="fill:#fbe68c;fill-opacity:1;fill-rule:nonzero;stroke:none"
           d="M 0,0 -1.845,0.627 -3.38,-11.859 h 1.127 l 2.26,11.864 z" />
      </g>
      <g
         transform="translate(136.6753,351.2061)"
         id="g2292">
        <path
           inkscape:connector-curvature="0"
           id="path2294"
           style="fill:#d2ad53;fill-opacity:1;fill-rule:nonzero;stroke:none"
           d="M 0,0 0.14,-11.885 H 1.464 L 1.767,0.575 Z" />
      </g>
      <g
         transform="translate(140.3472,351.1807)"
         id="g2296">
        <path
           inkscape:connector-curvature="0"
           id="path2298"
           style="fill:#fbe68c;fill-opacity:1;fill-rule:nonzero;stroke:none"
           d="m 0,0 -1.854,0.635 -0.051,-0.034 -0.303,-12.46 h 1.649 l 0.588,11.88 z" />
      </g>
      <g
         transform="translate(144.0645,351.1855)"
         id="g2300">
        <path
           inkscape:connector-curvature="0"
           id="path2302"
           style="fill:#d2ad53;fill-opacity:1;fill-rule:nonzero;stroke:none"
           d="m 0,0 -2.26,-11.864 h 0.848 L 1.849,0.63 Z" />
      </g>
    </g>
  </g>
</svg>
