<svg id="Layer_1" data-name="Layer 1" xmlns="http://www.w3.org/2000/svg" width="37" height="37" viewBox="0 0 48 48"><defs><style>.cls-1{fill:#c6c3d8;}.cls-2{fill:#e79165;}.cls-3{fill:#ffba55;}.cls-4{fill:#ffde76;}.cls-5{fill:#ef679c;}.cls-6{fill:#edebf2;}.cls-7{fill:#f26674;}.cls-8{fill:#72aaed;}.cls-9{fill:#b5e08c;}</style></defs><title>cupcake, pastry, birthday, celebration, food, sweet, dessert</title><polygon class="cls-1" points="36.73 47.5 11.27 47.5 6.38 31.83 41.63 31.83 36.73 47.5"/><path class="cls-2" d="M43.58,29.88a1.95,1.95,0,0,1-2,1.95H6.38a2,2,0,0,1-2-1.95A15.62,15.62,0,0,1,8.31,19.54c.22-.26.45-.5.69-.75a16,16,0,0,1,2.42-2,15.61,15.61,0,0,1,6.64-2.47,16.85,16.85,0,0,1,2-.13h7.84c.35,0,.7,0,1,0a15.56,15.56,0,0,1,7.61,2.56A16,16,0,0,1,39.22,19,15.62,15.62,0,0,1,43.58,29.88Z"/><path class="cls-3" d="M15.51,47.5H11.27L6.38,31.83a2.94,2.94,0,0,1,5.87,0Z"/><path class="cls-4" d="M19.76,47.5H15.51L12.25,31.83a2.94,2.94,0,0,1,5.87,0Z"/><path class="cls-3" d="M24,31.83V47.5H19.76L18.12,31.83a2.94,2.94,0,0,1,5.88,0Z"/><path class="cls-4" d="M29.88,31.83,28.24,47.5H24V31.83a2.94,2.94,0,0,1,5.88,0Z"/><path class="cls-3" d="M35.75,31.83,32.49,47.5H28.24l1.64-15.67a2.94,2.94,0,0,1,5.87,0Z"/><path class="cls-4" d="M41.62,31.83,36.73,47.5H32.49l3.26-15.67a2.94,2.94,0,0,1,5.87,0Z"/><path class="cls-5" d="M29.88,19.1a5.88,5.88,0,1,1-9.12-4.89h6.48A5.79,5.79,0,0,1,29,16a5.69,5.69,0,0,1,.87,2.39A4.87,4.87,0,0,1,29.88,19.1Z"/><path class="cls-5" d="M36.73,18.12A5.87,5.87,0,0,1,30.85,24a5.76,5.76,0,0,1-2.76-.69,5.86,5.86,0,0,1-1.6-9.1h1.43c.35,0,.7,0,1,0a15.56,15.56,0,0,1,7.61,2.56A5.66,5.66,0,0,1,36.73,18.12Z"/><path class="cls-5" d="M23,18.12a5.87,5.87,0,0,1-3.11,5.19,5.76,5.76,0,0,1-2.76.69,5.87,5.87,0,0,1-5.1-2.95,5.8,5.8,0,0,1-.78-2.93,5.66,5.66,0,0,1,.15-1.31,15.61,15.61,0,0,1,6.64-2.47,16.85,16.85,0,0,1,2-.13h1.43A5.81,5.81,0,0,1,23,18.12Z"/><path class="cls-5" d="M18.12,15.19a5.87,5.87,0,0,1-5.87,5.87h-.2a5.74,5.74,0,0,1-3.74-1.51c.22-.26.45-.5.69-.75a16,16,0,0,1,2.42-2,15.61,15.61,0,0,1,6.64-2.47A4.66,4.66,0,0,1,18.12,15.19Z"/><path class="cls-5" d="M39.22,19A5.89,5.89,0,0,1,36,20.93a6.38,6.38,0,0,1-1.25.13,5.84,5.84,0,0,1-5-2.72A5.64,5.64,0,0,1,29,16a6.47,6.47,0,0,1-.05-.76,7,7,0,0,1,.07-.94,15.56,15.56,0,0,1,7.61,2.56A16,16,0,0,1,39.22,19Z"/><rect class="cls-6" x="22.04" y="7.35" width="3.92" height="6.85"/><path class="cls-7" d="M26,4.42a2,2,0,0,1-3.92,0c0-2,2-3.92,2-3.92S26,2.46,26,4.42Z"/><path class="cls-4" d="M25,5.4a1,1,0,0,1-2,0,3.42,3.42,0,0,1,1-2A3.42,3.42,0,0,1,25,5.4Z"/><circle class="cls-7" cx="9.31" cy="24" r="0.98"/><circle class="cls-8" cx="16.17" cy="26.94" r="0.98"/><circle class="cls-9" cx="22.04" cy="20.08" r="0.98"/><circle class="cls-4" cx="16.17" cy="17.15" r="0.98"/><circle class="cls-8" cx="29.88" cy="17.15" r="0.98"/><circle class="cls-4" cx="37.71" cy="20.08" r="0.98"/><circle class="cls-7" cx="28.9" cy="25.96" r="0.98"/><circle class="cls-9" cx="37.71" cy="24.98" r="0.98"/></svg>